<svg  viewBox="-660 -220 1920 1080" fill="none" xmlns="http://www.w3.org/2000/svg" >
<filter id="blur" x="-50%" y="-50%" width="200%" height="200%">
   <feGaussianBlur stdDeviation="125" />
</filter>
<g filter="url(#blur)" >
<animateTransform attributeType="xml" attributeName="transform" type="rotate" from="360 299 313" to="0 299 313" dur="20s" additive="sum" repeatCount="indefinite" />
<animateTransform attributeName="transform" attributeType="XML" type="scale" values="1;1.2;1" repeatCount="indefinite" dur="10s" fill="freeze" additive="sum"/>
<path d="M523.8 95.7913C472.406 42.0991 403.456 8.6239 329.478 1.44742C255.499 -5.72906 181.401 13.8693 120.645 56.6819L213.558 188.538C242.752 167.967 278.356 158.55 313.903 161.998C349.45 165.446 382.58 181.531 407.275 207.33L523.8 95.7913Z" fill="#EFAE9A"/>
<path d="M550.847 487.921C586.929 431.348 602.901 364.269 596.188 297.506C589.474 230.742 560.466 168.186 513.842 119.93L406.539 223.602C429.862 247.742 444.373 279.036 447.732 312.434C451.09 345.833 443.1 379.389 425.05 407.689L550.847 487.921Z" fill="#A5D6A7"/>
<path d="M217.702 614.617C279.473 632.128 345.243 629.259 405.255 606.436C465.266 583.614 516.322 542.054 550.847 487.921L425.05 407.689C407.779 434.769 382.239 455.559 352.218 466.976C322.197 478.393 289.295 479.829 258.395 471.069L217.702 614.617Z" fill="#81D4FA"/>
<path d="M217.692 614.614C166.557 600.116 120.218 572.231 83.4635 533.837L191.242 430.659C209.629 449.865 232.809 463.815 258.39 471.067L217.692 614.614Z" fill="#FFE082"/>
<path d="M83.452 533.825C54.0166 503.074 31.4975 466.384 17.4051 426.215C3.31279 386.047 -2.02691 343.33 1.7442 300.929C5.51531 258.527 18.31 217.423 39.2702 180.372C60.2303 143.321 88.8711 111.181 123.272 86.1076L211.156 206.682C193.947 219.226 179.62 235.304 169.134 253.838C158.649 272.373 152.248 292.935 150.362 314.146C148.476 335.358 151.147 356.727 158.196 376.821C165.246 396.915 176.511 415.269 191.236 430.653L83.452 533.825Z" fill="#B39DDB"/>
</g>
</svg>
